<?xml version="1.0" encoding="utf-8"?>
<!-- Generator: Adobe Illustrator 22.0.1, SVG Export Plug-In . SVG Version: 6.00 Build 0)  -->
<svg version="1.1" id="Calque_1" xmlns="http://www.w3.org/2000/svg" xmlns:xlink="http://www.w3.org/1999/xlink" x="0px" y="0px"
	 viewBox="0 0 225.4 234.4" style="enable-background:new 0 0 225.4 234.4;" xml:space="preserve">
<style type="text/css">
	.st0{fill:#84BC26;}
</style>
<g>
	<path class="st0" d="M225.4-1c0,0-3.4,41-19.3,65.7s-39,53-60.6,60.2c-22.6,7.5-31.1,9.1-82.5-4.2S2,116.3,2,116.3
		s17.4-44.9,51.5-73.1s86.1-17.4,86.1-17.4s50.9,9.4,51.9,6.5c1-2.9,1.2,23.4-29,35.1S115,76.5,115,76.5s18.4,9.8,59.1-6.4
		c6.5-2.6,12.5-6.2,17.7-10.8C203,49.3,221.2,28.8,225.4-1z"/>
	<path class="st0" d="M171,117.9c0,0-22.2,17.3-45.1,16.8c0,0,19,22.5,23.9,23.9c4.9,1.4-25-9.7-31.6-23.6c0,0-29.1-1-39.1-4.8
		c0,0,8.2,27,25.6,42.9s31.8,22.9,31.8,22.9s33,13.5,42.8,21c9.8,7.6,19,16.4,19,16.4s4.6-35.4,4.6-40.9c0-5.5,1.6-33.8-14.9-57.8
		C188,134.7,181.4,123.2,171,117.9z"/>
</g>
</svg>
