<?xml version="1.0" encoding="utf-8"?>
<!-- Generator: Adobe Illustrator 22.0.1, SVG Export Plug-In . SVG Version: 6.00 Build 0)  -->
<svg version="1.1" id="Calque_1" xmlns="http://www.w3.org/2000/svg" xmlns:xlink="http://www.w3.org/1999/xlink" x="0px" y="0px"
	 viewBox="0 0 225.4 234.4" style="enable-background:new 0 0 225.4 234.4;" xml:space="preserve">
<style type="text/css">
	.st0{fill:#84BC26;}
</style>
<g>
	<path class="st0" d="M2,233.4c0,0,3.4-41,19.3-65.7s39-53,60.6-60.2c22.6-7.5,31.1-9.1,82.5,4.2s61.1,4.4,61.1,4.4
		s-17.4,44.9-51.5,73.1s-86.1,17.4-86.1,17.4s-50.9-9.4-51.9-6.5c-1,2.9-1.2-23.4,29-35.1c30.3-11.7,47.5-9.1,47.5-9.1
		s-18.4-9.8-59.1,6.4c-6.5,2.6-12.5,6.2-17.7,10.8C24.5,183.1,6.2,203.5,2,233.4z"/>
	<path class="st0" d="M56.5,114.5c0,0,22.2-17.3,45.1-16.8c0,0-19-22.5-23.9-23.9c-4.9-1.4,25,9.7,31.6,23.6c0,0,29.1,1,39.1,4.8
		c0,0-8.2-27-25.6-42.9S91,36.5,91,36.5S58,23,48.2,15.4S29.2-1,29.2-1s-4.6,35.4-4.6,40.9c0,5.5-1.6,33.8,14.9,57.8
		C39.4,97.7,46.1,109.2,56.5,114.5z"/>
</g>
</svg>
